<svg xmlns:xlink="http://www.w3.org/1999/xlink" xmlns="http://www.w3.org/2000/svg" width="48" height="48" viewBox="0 0 48 48" fill="none">
<path d="M13 18H7V37H13V18Z" stroke="#394460" stroke-width="3" stroke-linecap="round" stroke-linejoin="round"/>
<path d="M27.2 37.2004H20.5V27.3004C20.5 25.4004 22 23.9004 23.9 23.9004C25.8 23.9004 27.3 25.4004 27.3 27.3004V37.2004H27.2Z" stroke="#00BABA" stroke-width="3" stroke-linecap="round" stroke-linejoin="round"/>
<path d="M41 18H35V37H41V18Z" stroke="#394460" stroke-width="3" stroke-linecap="round" stroke-linejoin="round"/>
<path d="M44.5 44.2998H3.3V41.4998C3.3 39.1998 5.2 37.2998 7.5 37.2998H40.2C42.5 37.2998 44.4 39.1998 44.4 41.4998V44.2998H44.5Z" stroke="#394460" stroke-width="3" stroke-linecap="round" stroke-linejoin="round"/>
<path d="M44.5 17.4996H3.3V11.7996L23.9 3.09961L44.5 11.7996V17.4996Z" stroke="#394460" stroke-width="3" stroke-linecap="round" stroke-linejoin="round"/>
<path d="M23.9 10.5004V10.4004" stroke="#AAB8C9" stroke-width="3" stroke-linecap="round"/>
</svg>