<svg xmlns:xlink="http://www.w3.org/1999/xlink" width="24" height="24" viewBox="0 0 24 24" fill="none" xmlns="http://www.w3.org/2000/svg">
        <path d="M15.3195 12C15.3195 12.5696 15.1505 13.1264 14.8341 13.6C14.5176 14.0737 14.0678 14.4428 13.5416 14.6608C13.0153 14.8788 12.4363 14.9358 11.8776 14.8247C11.3189 14.7135 10.8058 14.4392 10.403 14.0365C10.0002 13.6337 9.72592 13.1205 9.61479 12.5619C9.50367 12.0032 9.5607 11.4241 9.77868 10.8979C9.99666 10.3716 10.3658 9.92183 10.8394 9.60537C11.313 9.28891 11.8698 9.12 12.4395 9.12C13.203 9.12087 13.935 9.42458 14.475 9.9645C15.0149 10.5044 15.3186 11.2364 15.3195 12ZM21.4395 8.04V15.96C21.4379 17.2962 20.9065 18.5773 19.9616 19.5221C19.0167 20.467 17.7357 20.9985 16.3995 21H8.47945C7.14323 20.9985 5.86216 20.467 4.91731 19.5221C3.97245 18.5773 3.44097 17.2962 3.43945 15.96V8.04C3.44097 6.70377 3.97245 5.42271 4.91731 4.47785C5.86216 3.533 7.14323 3.00151 8.47945 3H16.3995C17.7357 3.00151 19.0167 3.533 19.9616 4.47785C20.9065 5.42271 21.4379 6.70377 21.4395 8.04ZM16.7595 12C16.7595 11.1456 16.5061 10.3104 16.0314 9.59994C15.5567 8.88952 14.882 8.33581 14.0926 8.00884C13.3033 7.68187 12.4347 7.59632 11.5967 7.76301C10.7587 7.9297 9.98891 8.34114 9.38475 8.9453C8.78059 9.54946 8.36915 10.3192 8.20246 11.1572C8.03577 11.9952 8.12132 12.8638 8.44829 13.6532C8.77526 14.4426 9.32897 15.1173 10.0394 15.5919C10.7498 16.0666 11.585 16.32 12.4395 16.32C13.5848 16.3187 14.6828 15.8631 15.4927 15.0533C16.3026 14.2434 16.7582 13.1453 16.7595 12ZM18.1995 7.32C18.1995 7.1064 18.1361 6.89759 18.0174 6.71998C17.8988 6.54238 17.7301 6.40395 17.5328 6.32221C17.3354 6.24047 17.1183 6.21908 16.9088 6.26075C16.6993 6.30242 16.5068 6.40528 16.3558 6.55632C16.2047 6.70737 16.1019 6.8998 16.0602 7.1093C16.0185 7.3188 16.0399 7.53595 16.1217 7.7333C16.2034 7.93064 16.3418 8.09932 16.5194 8.21799C16.697 8.33666 16.9058 8.4 17.1195 8.4C17.4059 8.4 17.6806 8.28621 17.8831 8.08368C18.0857 7.88114 18.1995 7.60643 18.1995 7.32Z" fill="#465A71"></path>
    </svg>