<svg xmlns:xlink="http://www.w3.org/1999/xlink" width="24" height="24" viewBox="0 0 24 24" fill="none" xmlns="http://www.w3.org/2000/svg">
        <path d="M4.42528 2.5C2.95881 2.5 2 3.45698 2 4.7148C2 5.94484 2.93025 6.92912 4.36901 6.92912H4.39684C5.892 6.92912 6.82249 5.94484 6.82249 4.7148C6.79454 3.45698 5.892 2.5 4.42528 2.5Z" fill="#465A71"></path>
        <path d="M2.25391 8.67969H6.54102V21.4976H2.25391V8.67969Z" fill="#465A71"></path>
        <path d="M17.0649 8.38281C14.7521 8.38281 13.2013 10.5425 13.2013 10.5425V8.68365H8.91406V21.5016H13.2011V14.3435C13.2011 13.9603 13.229 13.5777 13.3423 13.3037C13.6522 12.5385 14.3575 11.7458 15.5419 11.7458C17.0932 11.7458 17.7136 12.9212 17.7136 14.6444V21.5016H22.0004V14.152C22.0004 10.2149 19.8853 8.38281 17.0649 8.38281Z" fill="#465A71"></path>
    </svg>