<svg xmlns:xlink="http://www.w3.org/1999/xlink" width="32" height="32" viewBox="0 0 32 32" fill="none" xmlns="http://www.w3.org/2000/svg">
<g clip-path="url(#clip0_18136_22819)" fill="none">
<path opacity="0.2" d="M31.9868 0H-0.0131836V32H31.9868V0Z" fill="#FFFFFF"></path>
<path d="M5.83986 16.1328H3.91986C3.75338 16.1947 3.60952 16.3055 3.50719 16.4507C3.40486 16.5958 3.34885 16.7686 3.34652 16.9461V19.3995C3.33619 19.5799 3.38724 19.7585 3.49134 19.9061C3.59545 20.0538 3.74648 20.1619 3.91986 20.2128L5.33319 20.6661C5.4718 20.7007 5.59841 20.7723 5.69941 20.8733C5.80042 20.9743 5.87202 21.1009 5.90652 21.2395C6.09409 21.9244 6.36737 22.583 6.71986 23.1995C6.79955 23.4647 6.79955 23.7476 6.71986 24.0128L5.90652 25.3461C5.83913 25.5048 5.8112 25.6775 5.82514 25.8493C5.83907 26.0212 5.89445 26.1871 5.98652 26.3328L7.70652 28.0395C7.83003 28.1672 7.99139 28.2517 8.16671 28.2806C8.34203 28.3094 8.52197 28.2809 8.67986 28.1995L10.0132 27.3861C10.1369 27.3079 10.2802 27.2664 10.4265 27.2664C10.5729 27.2664 10.7162 27.3079 10.8399 27.3861C11.4307 27.7793 12.0916 28.0554 12.7865 28.1995C12.9164 28.2504 13.0344 28.3276 13.133 28.4263C13.2317 28.525 13.3089 28.6429 13.3599 28.7728L13.7732 30.3328C13.8082 30.521 13.9095 30.6904 14.0587 30.8103C14.2079 30.9302 14.3952 30.9926 14.5865 30.9861H17.0399C17.228 30.9803 17.4091 30.9134 17.5558 30.7956C17.7026 30.6777 17.807 30.5153 17.8532 30.3328L18.1865 28.7728C18.2837 28.492 18.4839 28.2585 18.7465 28.1195C19.4285 27.9232 20.086 27.6504 20.7065 27.3061C20.8302 27.2279 20.9735 27.1864 21.1199 27.1864C21.2662 27.1864 21.4095 27.2279 21.5332 27.3061L22.8665 28.1195C22.9438 28.1966 23.0374 28.2556 23.1404 28.2919C23.2434 28.3283 23.3532 28.3412 23.4618 28.3297C23.5704 28.3182 23.6751 28.2826 23.7682 28.2255C23.8613 28.1683 23.9404 28.0911 23.9999 27.9995L25.7199 26.2795C25.8479 26.1539 25.9264 25.9864 25.9411 25.8077C25.9557 25.629 25.9056 25.451 25.7999 25.3061L25.2265 24.2395C25.1468 23.9742 25.1468 23.6914 25.2265 23.4261C25.5372 22.7899 25.8088 22.1354 26.0399 21.4661C26.0781 21.3294 26.151 21.2048 26.2514 21.1044C26.3518 21.0039 26.4764 20.9311 26.6132 20.8928L28.0799 20.4928C28.2602 20.4144 28.4161 20.2888 28.5311 20.1293C28.6461 19.9697 28.7159 19.7821 28.7332 19.5861V17.1595C28.731 16.982 28.6768 16.8091 28.5772 16.6621C28.4777 16.5152 28.3372 16.4007 28.1732 16.3328H25.8265" stroke="#138180" stroke-width="1.8px" stroke-linecap="round" stroke-linejoin="round" fill="none"></path>
<path d="M20.1731 18.6658L20.5064 18.0258C21.7064 16.2125 23.2531 14.4125 23.2531 12.0791C23.1729 10.211 22.3744 8.44595 21.0242 7.1524C19.6739 5.85885 17.8763 5.13672 16.0064 5.13672C14.1366 5.13672 12.3389 5.85885 10.9887 7.1524C9.63844 8.44595 8.83992 10.211 8.75977 12.0791C8.75977 14.3858 10.0931 16.0791 11.3331 17.8258L11.6398 18.3058L11.8131 18.6658" stroke="#05554B" stroke-width="1.8px" stroke-miterlimit="10" stroke-linecap="round" fill="none"></path>
<path d="M18.5735 25.1338H13.0668C12.9109 25.1322 12.7606 25.0749 12.6433 24.9722C12.5259 24.8695 12.4491 24.7282 12.4268 24.5738L12.0002 21.8405C11.9845 21.748 11.9894 21.6531 12.0145 21.5627C12.0396 21.4723 12.0842 21.3885 12.1453 21.3172C12.2064 21.246 12.2823 21.1891 12.3679 21.1504C12.4534 21.1118 12.5463 21.0925 12.6402 21.0938H19.1202C19.217 21.0933 19.3127 21.1147 19.4 21.1565C19.4874 21.1982 19.5641 21.2593 19.6245 21.335C19.6848 21.4108 19.7271 21.4992 19.7483 21.5937C19.7695 21.6882 19.769 21.7862 19.7468 21.8805L19.1735 24.6138C19.1466 24.7554 19.0728 24.8837 18.9639 24.9781C18.855 25.0725 18.7175 25.1273 18.5735 25.1338V25.1338Z" stroke="#05554B" stroke-width="1.8px" stroke-miterlimit="10" stroke-linecap="round" fill="none"></path>
<path d="M16 1L16 2" stroke="#05554B" stroke-width="1.8px" stroke-miterlimit="10" stroke-linecap="round" fill="none"></path>
<path d="M25.9867 3L25.04 3.93333" stroke="#05554B" stroke-width="1.8px" stroke-miterlimit="10" stroke-linecap="round" fill="none"></path>
<path d="M6 3L6.94667 3.93333" stroke="#05554B" stroke-width="1.8px" stroke-miterlimit="10" stroke-linecap="round" fill="none"></path>
<path d="M4.46651 11.5742H2.83984" stroke="#05554B" stroke-width="1.8px" stroke-miterlimit="10" stroke-linecap="round" fill="none"></path>
<path d="M28.9069 11.5742H27.2803" stroke="#05554B" stroke-width="1.8px" stroke-miterlimit="10" stroke-linecap="round" fill="none"></path>
</g>
<defs>
<clipPath id="clip0_18136_22819">
<rect width="32" height="32" fill="white"></rect>
</clipPath>
</defs>
</svg>