<svg xmlns:xlink="http://www.w3.org/1999/xlink" width="32" height="32" viewBox="0 0 32 32" fill="none" xmlns="http://www.w3.org/2000/svg">
        <path d="M26.0382 13.9172L26.009 13.8426L23.1822 6.4653C23.1247 6.32071 23.0229 6.19805 22.8913 6.11493C22.7597 6.03321 22.6062 5.99386 22.4515 6.00217C22.2968 6.01049 22.1483 6.06607 22.0262 6.16143C21.9055 6.25951 21.8179 6.39243 21.7753 6.54208L19.8667 12.3816H12.1379L10.2292 6.54208C10.1878 6.39161 10.1 6.25803 9.97833 6.16034C9.85622 6.06499 9.70779 6.00941 9.55308 6.00109C9.39838 5.99278 9.24484 6.03213 9.11321 6.11384C8.98196 6.1973 8.88021 6.31985 8.82232 6.46422L5.99013 13.8383L5.96201 13.9129C5.55509 14.9761 5.50486 16.1429 5.8189 17.2371C6.13294 18.3314 6.79424 19.2939 7.70307 19.9796L7.7128 19.9871L7.73875 20.0055L12.0449 23.2302L14.1752 24.8426L15.4729 25.8224C15.6247 25.9376 15.8101 26 16.0007 26C16.1912 26 16.3766 25.9376 16.5284 25.8224L17.8261 24.8426L19.9564 23.2302L24.2885 19.986L24.2993 19.9774C25.2061 19.2916 25.8659 18.3301 26.1794 17.2373C26.493 16.1445 26.4434 14.9795 26.0382 13.9172Z" fill="#465A71"></path>
    </svg>