<svg xmlns:xlink="http://www.w3.org/1999/xlink" width="24" height="24" viewBox="0 0 24 24" fill="none" xmlns="http://www.w3.org/2000/svg">
        <mask id="mask0_19101_2683" style="mask-type:alpha" maskUnits="userSpaceOnUse" x="2" y="3" width="20" height="18" fill="none">
        <rect x="2" y="3" width="20" height="18" fill="#B2C2D6"></rect>
        </mask>
        <g mask="url(#mask0_19101_2683)" fill="none">
        <path d="M2.33317 11.6799L6.70136 13.2523L8.4042 18.5413C8.47824 18.8986 8.92246 18.9701 9.21861 18.7557L11.6618 16.8259C11.8839 16.6115 12.2541 16.6115 12.5503 16.8259L16.9184 19.8993C17.2146 20.1137 17.6588 19.9707 17.7329 19.6134L20.9905 4.60405C21.0645 4.24669 20.6943 3.88933 20.3241 4.03227L2.33317 10.7507C1.88894 10.8937 1.88894 11.5369 2.33317 11.6799ZM8.1821 12.4661L16.7704 7.3915C16.9184 7.32002 17.0665 7.53445 16.9184 7.60592L9.88494 13.967C9.66283 14.1814 9.44071 14.4673 9.44071 14.8247L9.21861 16.54C9.21861 16.7545 8.84842 16.8259 8.77438 16.54L7.88593 13.3952C7.66382 13.0379 7.81191 12.609 8.1821 12.4661Z" fill="#465A71"></path>
        </g>
    </svg>