<svg xmlns:xlink="http://www.w3.org/1999/xlink" xmlns="http://www.w3.org/2000/svg" width="48" height="48" viewBox="0 0 48 48" fill="none">
<path d="M16.6 32.7998H11.1H9.10001C5.50001 32.7998 2.60001 30.2998 1.80001 26.9998C1.80001 26.8998 1.80001 26.7998 1.70001 26.6998C1.60001 26.1998 1.60001 25.7998 1.60001 25.2998C1.60001 21.1998 4.90001 17.7998 9.10001 17.7998C9.70001 17.7998 10.4 17.8998 11 17.9998" stroke="#394460" stroke-width="3" stroke-linecap="round" stroke-linejoin="round"/>
<path d="M11 18.1002C11.8 11.7002 17.3 6.7002 23.9 6.7002C29.2 6.7002 33.8 9.9002 35.8 14.4002C36.2 14.3002 36.6 14.3002 37.1 14.3002C42.2 14.3002 46.3 18.4002 46.3 23.5002C46.3 28.6002 42.2 32.7002 37.1 32.7002H35.9H31.5" stroke="#394460" stroke-width="3" stroke-linecap="round" stroke-linejoin="round"/>
<path d="M11.2 18.0996L11 18.2996C11 18.1996 11 18.1996 11 18.0996C11 18.0996 11.1 18.0996 11.2 18.0996Z" fill="#394460"/>
<path d="M11.2 18.0996L11 18.2996C11 18.1996 11 18.1996 11 18.0996C11 18.0996 11.1 18.0996 11.2 18.0996Z" fill="#394460"/>
<path d="M1.80001 27.0002L1.60001 26.8002L1.70001 26.7002C1.80001 26.8002 1.80001 26.9002 1.80001 27.0002Z" fill="#394460"/>
<path d="M31.6 16.0998C33.1 14.8998 35.1 14.2998 37.1 14.2998C42.2 14.2998 46.3 18.3998 46.3 23.4998" stroke="#394460" stroke-width="3" stroke-linecap="round" stroke-linejoin="round"/>
<path d="M23.9 30.6C26.6 30.6 28.7 28.5 28.7 25.8C28.7 23.2 26.5 21 23.9 21C21.2 21 19.1 23.1 19.1 25.8C19.1 28.4 21.2 30.6 23.9 30.6Z" stroke="#00BABA" stroke-width="3" stroke-linecap="round" stroke-linejoin="round"/>
<path d="M24 39L24 31" stroke="#00BABA" stroke-width="3" stroke-linecap="round" stroke-linejoin="round"/>
<path d="M27 37L24 37" stroke="#00BABA" stroke-width="3" stroke-linecap="round" stroke-linejoin="round"/>
</svg>