<svg xmlns:xlink="http://www.w3.org/1999/xlink" xmlns="http://www.w3.org/2000/svg" width="48" height="48" viewBox="0 0 48 48" fill="none">
<path d="M24 45.5C12.1259 45.5 2.5 35.8741 2.5 24C2.5 12.1259 12.1259 2.5 24 2.5C35.8741 2.5 45.5 12.1259 45.5 24C45.5 35.8741 35.8741 45.5 24 45.5Z" stroke="#394460" stroke-width="3"/>
<path d="M12 15L12 22L18 22" stroke="#00BABA" stroke-width="3" stroke-linecap="round" stroke-linejoin="round"/>
<path d="M37 34L37 27L31 27" stroke="#AAB8C9" stroke-width="3" stroke-linecap="round" stroke-linejoin="round"/>
<path d="M37 27L31.7624 31.9845C30.5493 33.2139 29.0484 34.1119 27.3999 34.5948C25.7514 35.0778 24.0089 35.1299 22.3352 34.7463C20.6614 34.3628 19.1108 33.556 17.8281 32.4013C16.5455 31.2467 15.5725 29.7818 15 28.1432" stroke="#AAB8C9" stroke-width="3" stroke-linecap="round" stroke-linejoin="round"/>
<path d="M34 20.8568C33.4275 19.2182 32.4545 17.7533 31.1719 16.5987C29.8892 15.444 28.3386 14.6372 26.6648 14.2537C24.9911 13.8701 23.2486 13.9222 21.6001 14.4052C19.9516 14.8881 18.4507 15.7861 17.2376 17.0155L12 22" stroke="#00BABA" stroke-width="3" stroke-linecap="round" stroke-linejoin="round"/>
</svg>