<svg xmlns:xlink="http://www.w3.org/1999/xlink" xmlns="http://www.w3.org/2000/svg" width="42" height="42" viewBox="0 0 42 42" fill="none">
<g clip-path="url(#clip0_13771_20701)">
<path d="M22.575 6.6502V2.8002C22.575 2.3627 22.925 2.0127 23.3625 2.0127H26.95C27.475 2.0127 27.9125 2.5377 27.7375 3.0627L25.375 10.5877L24.5 13" stroke="#394460" stroke-width="3" stroke-linecap="round" stroke-linejoin="round"/>
<path d="M22.575 4.375H18.9C17.9375 4.375 17.325 5.3375 17.675 6.2125L20.5 12.5" stroke="#394460" stroke-width="3" stroke-linecap="round" stroke-linejoin="round"/>
<path d="M19.95 39.7252C19.1625 39.9002 18.375 40.0752 17.5 40.0752C12.075 40.0752 7.70001 35.7002 7.70001 30.2752C7.70001 29.9252 7.70001 29.4877 7.78751 29.1377" stroke="#394460" stroke-width="3" stroke-linecap="round" stroke-linejoin="round"/>
<path d="M37.0125 29.75C37.0125 29.925 37.0125 30.1 37.0125 30.275C37.0125 35.7 32.6375 40.075 27.2125 40.075C26.425 40.075 25.6375 39.9875 24.85 39.8125" stroke="#394460" stroke-width="3" stroke-linecap="round" stroke-linejoin="round"/>
<path d="M29 36C27.2069 38.4286 24.9655 40 22.4552 40C19.9448 40 17.7034 38.5714 16 36.2857" stroke="#394460" stroke-width="3" stroke-linecap="round" stroke-linejoin="round"/>
<path d="M20.5625 14.7002C20.5625 14.7002 8.66251 19.5127 7.78751 29.3127" stroke="#394460" stroke-width="3" stroke-linecap="round" stroke-linejoin="round"/>
<path d="M24.2375 14.7002C24.2375 14.7002 36.1375 19.5127 37.0125 29.3127" stroke="#394460" stroke-width="3" stroke-linecap="round" stroke-linejoin="round"/>
<path d="M18 14H28" stroke="#00BABA" stroke-width="3" stroke-linecap="round"/>
</g>
<defs>
<clipPath id="clip0_13771_20701">
<rect width="42" height="42" fill="white"/>
</clipPath>
</defs>
</svg>