<svg xmlns:xlink="http://www.w3.org/1999/xlink" xmlns="http://www.w3.org/2000/svg" width="48" height="48" viewBox="0 0 48 48" fill="none">
    <path d="M17.9998 44C19.1043 44 19.9998 43.1046 19.9998 42C19.9998 40.8954 19.1043 40 17.9998 40C16.8952 40 15.9998 40.8954 15.9998 42C15.9998 43.1046 16.8952 44 17.9998 44Z" stroke="#00BABA" stroke-width="3" stroke-linecap="round" stroke-linejoin="round"/>
    <path d="M40.0002 44C41.1048 44 42.0002 43.1046 42.0002 42C42.0002 40.8954 41.1048 40 40.0002 40C38.8957 40 38.0002 40.8954 38.0002 42C38.0002 43.1046 38.8957 44 40.0002 44Z" stroke="#00BABA" stroke-width="3" stroke-linecap="round" stroke-linejoin="round"/>
    <path d="M22 12L24.5 32" stroke="#AAB8C9" stroke-width="3" stroke-linecap="round"/>
    <path d="M35.5 12L33 32" stroke="#AAB8C9" stroke-width="3" stroke-linecap="round"/>
    <path d="M2.00024 2H10.0002L15.3602 28.78C15.5431 29.7008 16.0441 30.5279 16.7753 31.1166C17.5066 31.7053 18.4216 32.018 19.3602 32H38.8002C39.7388 32.018 40.6539 31.7053 41.3852 31.1166C42.1164 30.5279 42.6174 29.7008 42.8002 28.78L46.0002 12H12.0002" stroke="#394460" stroke-width="3" stroke-linecap="round" stroke-linejoin="round"/>
</svg>